<?xml version="1.0" encoding="utf-8"?>
<!-- Generator: Adobe Illustrator 26.3.1, SVG Export Plug-In . SVG Version: 6.00 Build 0)  -->
<svg version="1.1" id="Layer_1" xmlns="http://www.w3.org/2000/svg" xmlns:xlink="http://www.w3.org/1999/xlink" x="0px" y="0px"
	 viewBox="0 0 685.64 243.46" style="enable-background:new 0 0 685.64 243.46;" xml:space="preserve">
<style type="text/css">
	.st0{fill-rule:evenodd;clip-rule:evenodd;fill:#83163F;}
	.st1{fill-rule:evenodd;clip-rule:evenodd;fill:#E3A22E;}
</style>
<g>
	<path class="st0" d="M7.17,120.3C7.17,57.43,57.38,7.91,118.85,7.91c61.48,0,110.94,49.52,110.94,112.39
		c0,62.87-49.84,113.83-111.31,113.83C57,234.13,7.17,183.17,7.17,120.3z"/>
	<path class="st1" d="M13.26,118.92c0-3.16,2.58-5.72,5.77-5.72c3.18,0,5.77,2.56,5.77,5.72c0,3.16-2.58,5.72-5.77,5.72
		C15.84,124.64,13.26,122.08,13.26,118.92L13.26,118.92z M213.7,102.34l0.7,3.12l4.34-2.65L213.7,102.34L213.7,102.34z
		 M221.15,100.74l0.65,2.9l-10.94,7.18l-0.62-2.78l2.27-1.37l-1.01-4.52l-2.64-0.27l-0.6-2.68L221.15,100.74L221.15,100.74z
		 M207.91,98.16l-0.75-2.5l11.7-3.68l0.74,2.5L207.91,98.16L207.91,98.16z M207.54,85.83l-0.91-2.33c-1.18,0.49-1.93,1.31-2.27,2.47
		c-0.33,1.15-0.2,2.49,0.4,4.01c0.58,1.49,1.38,2.5,2.38,3.03c1.01,0.53,2.03,0.58,3.06,0.15c1.01-0.42,1.65-1.09,1.91-2.01
		c0.17-0.59,0.18-1.37,0.04-2.34l-0.32-2.21c-0.12-0.85-0.17-1.42-0.12-1.72c0.05-0.45,0.29-0.76,0.69-0.93
		c0.44-0.18,0.86-0.14,1.25,0.13c0.39,0.27,0.71,0.72,0.96,1.35c0.22,0.57,0.31,1.08,0.27,1.54c-0.06,0.69-0.43,1.2-1.09,1.52
		l0.92,2.35c1.19-0.55,1.93-1.38,2.21-2.52c0.3-1.13,0.2-2.31-0.28-3.54c-0.58-1.47-1.35-2.45-2.32-2.93
		c-0.97-0.48-1.96-0.51-2.98-0.09c-1.11,0.46-1.78,1.2-1.99,2.2c-0.13,0.6-0.09,1.56,0.12,2.88l0.21,1.35
		c0.13,0.79,0.17,1.39,0.1,1.81c-0.07,0.42-0.3,0.71-0.67,0.87c-0.64,0.26-1.21,0.11-1.71-0.48c-0.27-0.31-0.51-0.75-0.74-1.33
		c-0.38-0.96-0.41-1.74-0.1-2.33C206.72,86.43,207.05,86.12,207.54,85.83L207.54,85.83z M208.62,68.84l1.26,2.34l-6.57,3.75
		c-0.74,0.42-1.23,0.82-1.47,1.19c-0.45,0.62-0.42,1.4,0.08,2.34c0.5,0.93,1.13,1.37,1.88,1.3c0.43-0.01,1.02-0.23,1.75-0.65
		l6.58-3.75l1.26,2.34l-6.57,3.76c-1.14,0.65-2.12,0.97-2.95,0.97c-1.53-0.02-2.8-0.98-3.83-2.89c-1.02-1.91-1.14-3.54-0.35-4.88
		c0.44-0.72,1.23-1.41,2.36-2.06L208.62,68.84L208.62,68.84z M201.41,57.76l-10.02,7.23l1.37,2.01l7.11-5.13l-4.25,9.35l1.46,2.16
		l10.02-7.23l-1.36-2.01l-6.99,5.04l4.2-9.16L201.41,57.76L201.41,57.76z M189.45,55.35l4.66-2.03l-2.63,4.44L189.45,55.35
		L189.45,55.35z M195.3,50.33l1.9,2.24l-6.39,11.63l-1.82-2.15l1.38-2.31l-2.96-3.51l-2.45,1.04l-1.75-2.08L195.3,50.33L195.3,50.33
		z M187.98,42.67L180,48.66l4.63-8.98l-2.8-2.51l-8.02,9.51l1.8,1.61l5.43-6.43c0.15-0.18,0.37-0.44,0.65-0.78
		c0.28-0.34,0.49-0.6,0.65-0.78l-5,9.53l1.87,1.68l8.48-6.41c-0.15,0.18-0.37,0.44-0.66,0.77c-0.28,0.33-0.5,0.58-0.66,0.77
		l-5.43,6.43l1.8,1.61l8.02-9.51L187.98,42.67L187.98,42.67z M166.72,26.87l2.15,1.33l-2.59,4.45l6.64-1.94l2.83,1.75l-6.89,1.79
		l0.81,9.15l-2.82-1.75l-0.49-6.72l-1.69,0.46L162.58,39l-2.16-1.33L166.72,26.87L166.72,26.87z M154.97,21.05l-3.18,7.02
		c-0.55,1.22-0.79,2.25-0.74,3.1c0.12,1.57,1.15,2.82,3.07,3.74c1.92,0.92,3.5,0.93,4.74,0.01c0.67-0.5,1.28-1.36,1.83-2.57
		l3.17-7.02l-2.35-1.13l-3.18,7.02c-0.36,0.79-0.7,1.32-1.05,1.59c-0.57,0.5-1.32,0.53-2.26,0.08c-0.94-0.45-1.41-1.07-1.4-1.84
		c-0.02-0.45,0.15-1.07,0.51-1.85l3.17-7.02L154.97,21.05L154.97,21.05z M152.84,20.29l-0.67,2.12l-3.48-1.16l-3.11,9.86l-2.45-0.82
		l3.11-9.86l-3.5-1.17l0.67-2.12L152.84,20.29L152.84,20.29z M131.52,14.58l2.63,0.53l3.15,9.59l1.63-8.63l2.34,0.47l-2.33,12.37
		l-2.51-0.5l-3.24-9.77l-1.66,8.78l-2.34-0.47L131.52,14.58L131.52,14.58z M118.48,13.54l2.59,0.19l-0.52,7.73
		c-0.06,0.86,0,1.5,0.17,1.91c0.26,0.73,0.91,1.13,1.95,1.2c1.03,0.07,1.73-0.23,2.08-0.91c0.23-0.39,0.37-1.01,0.43-1.87l0.52-7.73
		l2.59,0.19l-0.52,7.73c-0.09,1.34-0.36,2.36-0.82,3.08c-0.84,1.31-2.32,1.89-4.44,1.74c-2.11-0.15-3.5-0.94-4.16-2.35
		c-0.35-0.77-0.48-1.83-0.39-3.16L118.48,13.54L118.48,13.54z M100.22,15.11l2.66-0.34l5.88,8.12l-1.04-8.73l2.36-0.3l1.49,12.51
		l-2.54,0.32l-6.02-8.26l1.06,8.88l-2.36,0.3L100.22,15.11L100.22,15.11z M92.58,24.96l3.01-0.77l-2.65-4.43L92.58,24.96
		L92.58,24.96z M90.9,17.31l-1.27,13.31l2.59-0.67l0.21-2.72l4.37-1.12l1.37,2.32l2.69-0.69L93.7,16.59L90.9,17.31L90.9,17.31z
		 M79.79,34.56L75.2,22.88l2.35-0.97l1.74,4.45l4.43-1.84l-1.75-4.45l2.35-0.98l4.58,11.68l-2.35,0.98l-2.05-5.21l-4.43,1.84
		l2.04,5.22L79.79,34.56L79.79,34.56z M63.71,29l3.53,6.84c0.61,1.18,1.26,2,1.96,2.47c1.29,0.84,2.88,0.75,4.75-0.28
		c1.87-1.02,2.83-2.32,2.86-3.89c0.02-0.86-0.28-1.87-0.89-3.06l-3.53-6.84l-2.29,1.26l3.53,6.84c0.39,0.76,0.6,1.37,0.6,1.82
		c0.05,0.77-0.38,1.41-1.3,1.91c-0.92,0.5-1.67,0.52-2.27,0.04c-0.36-0.26-0.73-0.77-1.13-1.53L66,27.74L63.71,29L63.71,29z
		 M61.74,30.33l1.21,1.85l-3.03,2.11l5.63,8.6l-2.13,1.48l-5.63-8.6l-3.05,2.12l-1.21-1.85L61.74,30.33L61.74,30.33z M49.08,50.64
		l2.27-2.18l-4.4-2.55L49.08,50.64L49.08,50.64z M44,44.8l5.15,12.28l1.95-1.88l-1.1-2.49l3.3-3.16l2.29,1.34l2.02-1.95l-11.5-6.17
		L44,44.8L44,44.8z M32.81,57.64l1.69-2.14l9.7,1.63l-6.63-5.53l1.5-1.91l9.5,7.93l-1.61,2.04l-9.89-1.63l6.75,5.63l-1.5,1.91
		L32.81,57.64L32.81,57.64z M33.87,70.1l1.69-2.68l-4.87-1.38L33.87,70.1L33.87,70.1z M27.58,65.7l7.88,10.63l1.46-2.31l-1.65-2.14
		l2.45-3.89l2.54,0.73l1.51-2.39L29.15,63.2L27.58,65.7L27.58,65.7z M22.9,79.52l2.98,1.43l1.23-2.7c0.24-0.54,0.36-0.97,0.36-1.3
		c0.01-0.58-0.3-1.01-0.93-1.31c-0.67-0.32-1.23-0.31-1.66,0.04c-0.25,0.2-0.49,0.55-0.72,1.07L22.9,79.52L22.9,79.52z M23.57,73.62
		c0.37-0.35,0.79-0.59,1.27-0.73c0.39-0.11,0.79-0.16,1.2-0.14c0.41,0.02,0.83,0.14,1.26,0.34c0.53,0.25,0.98,0.64,1.37,1.16
		c0.38,0.52,0.53,1.14,0.46,1.87c0.44-0.43,0.9-0.66,1.38-0.69c0.48-0.04,1.1,0.12,1.88,0.5l0.75,0.36
		c0.51,0.24,0.86,0.39,1.06,0.43c0.31,0.07,0.59,0.03,0.83-0.13l0.28,0.13l-1.19,2.62c-0.28-0.05-0.5-0.09-0.66-0.13
		c-0.34-0.09-0.67-0.21-1-0.36l-1.04-0.48c-0.71-0.33-1.24-0.42-1.59-0.27c-0.35,0.14-0.69,0.56-1,1.26l-1.11,2.46l4.34,2.09
		L31,86.25l-11.08-5.32l2.53-5.6C22.83,74.53,23.2,73.96,23.57,73.62L23.57,73.62z M20.95,84.6l-2.05-0.73l-2.92,8.74l11.56,4.1
		l3.02-9.03l-2.08-0.74l-2.21,6.6l-2.97-1.06l1.94-5.79l-2.01-0.71l-1.94,5.79l-2.45-0.87L20.95,84.6L20.95,84.6z M13.25,105.95
		l0.48-2.54l4.95,0.99l-4.04-5.76l0.63-3.34l3.99,6.06l8.06-3.91l-0.63,3.32l-5.97,2.77l1,1.48l4.02,0.8l-0.48,2.54L13.25,105.95
		L13.25,105.95z M216.58,137.18l0.38-3.17l-4.96,0.96L216.58,137.18L216.58,137.18z M209.05,136.07l0.35-2.95l12.66-2.9l-0.34,2.83
		l-2.59,0.49l-0.55,4.61l2.39,1.18l-0.33,2.73L209.05,136.07L209.05,136.07z M220.03,144.12l-11.92-2.83l-0.57,2.55l11.91,2.83
		L220.03,144.12L220.03,144.12z M212.88,155.06c0.55,0.11,1,0.11,1.33-0.02c0.61-0.24,1.08-0.84,1.41-1.82
		c0.2-0.59,0.29-1.08,0.29-1.5c-0.01-0.78-0.34-1.29-0.99-1.52c-0.38-0.13-0.73-0.07-1.06,0.2c-0.32,0.27-0.68,0.75-1.08,1.43
		l-0.69,1.16c-0.69,1.14-1.27,1.89-1.75,2.26c-0.8,0.61-1.77,0.72-2.91,0.32c-1.03-0.37-1.76-1.06-2.19-2.08
		c-0.42-1.02-0.39-2.28,0.12-3.78c0.42-1.26,1.1-2.21,2.04-2.87c0.94-0.66,2.03-0.79,3.27-0.4l-0.8,2.39
		c-0.71-0.21-1.31-0.07-1.8,0.41c-0.32,0.32-0.58,0.77-0.77,1.34c-0.21,0.64-0.26,1.2-0.14,1.67c0.12,0.47,0.41,0.79,0.86,0.95
		c0.41,0.15,0.78,0.07,1.12-0.24c0.22-0.19,0.55-0.66,1-1.38l1.17-1.88c0.51-0.82,1.01-1.4,1.52-1.74c0.78-0.52,1.69-0.59,2.72-0.23
		c1.06,0.38,1.79,1.11,2.22,2.19c0.42,1.08,0.37,2.37-0.13,3.89c-0.52,1.55-1.27,2.65-2.25,3.3c-0.99,0.64-2.08,0.76-3.29,0.33
		L212.88,155.06L212.88,155.06z M202.74,157.43l3.8,4.59l-5.9,0.05l-1.27,2.81l8.7-0.63l4.17,2l1.08-2.39l-4.16-2l-5.19-7.14
		L202.74,157.43L202.74,157.43z M202.71,173.81l1.64-2.71l-4.89-1.29L202.71,173.81L202.71,173.81z M196.34,169.52l1.53-2.52
		l12.67,2.89l-1.47,2.42l-2.55-0.68l-2.39,3.94l1.69,2.11l-1.42,2.33L196.34,169.52L196.34,169.52z M188.69,180.44l9.63,7.76
		l5.3-6.99l-1.73-1.39l-3.73,4.92l-7.9-6.36L188.69,180.44L188.69,180.44z M188.58,191.99l-2.37-4.61l4.52,2.32L188.58,191.99
		L188.58,191.99z M183.21,186.43l2.01-2.14l11.8,5.54l-1.93,2.05l-2.35-1.21l-3.13,3.34l1.22,2.43l-1.86,1.98L183.21,186.43
		L183.21,186.43z M176.87,192.6l4.34,9.13l-7.78-6.26l-2.89,2.41l7.69,9.79l1.85-1.54l-5.2-6.62c-0.15-0.19-0.36-0.46-0.63-0.79
		c-0.28-0.34-0.49-0.61-0.63-0.79l8.24,6.73l1.93-1.61l-4.66-9.72c0.15,0.19,0.35,0.45,0.62,0.8c0.26,0.35,0.47,0.61,0.62,0.8
		l5.2,6.62l1.85-1.54l-7.7-9.79L176.87,192.6L176.87,192.6z M171.63,212.06l-2.17,1.35l-6.3-10.8l2.18-1.35L171.63,212.06
		L171.63,212.06z M161.21,208.42l2.26-1.13c-0.64-1.03-1.56-1.69-2.75-1.99c-1.19-0.31-2.49-0.11-3.88,0.59
		c-1.61,0.81-2.64,2.01-3.1,3.61c-0.45,1.6-0.25,3.31,0.62,5.15c0.86,1.81,2.02,3,3.49,3.56c1.42,0.57,2.86,0.49,4.32-0.24
		c0.89-0.44,1.54-1.01,1.96-1.7c0.25-0.4,0.47-0.97,0.65-1.74l0.9,1.3l1.52-0.76l-2.88-6.08l-4.58,2.3l0.89,1.89l2.54-1.28
		c0.24,0.8,0.22,1.55-0.06,2.26c-0.28,0.7-0.8,1.25-1.57,1.64c-0.78,0.39-1.63,0.46-2.51,0.19c-0.89-0.27-1.67-1.1-2.32-2.49
		c-0.65-1.38-0.86-2.56-0.62-3.53c0.24-0.98,0.81-1.69,1.69-2.13c0.46-0.23,0.92-0.36,1.38-0.38
		C159.99,207.41,160.67,207.74,161.21,208.42L161.21,208.42z M150.88,219.22c0.32-0.93,0.26-2.06-0.19-3.4
		c-0.45-1.34-1.07-2.27-1.88-2.79c-0.8-0.54-1.69-0.63-2.64-0.29c-0.96,0.34-1.6,0.97-1.92,1.9c-0.33,0.93-0.27,2.07,0.18,3.41
		c0.45,1.34,1.08,2.27,1.89,2.8c0.81,0.52,1.7,0.62,2.66,0.28C149.92,220.77,150.56,220.14,150.88,219.22L150.88,219.22z
		 M153,220.49c-0.56,1.24-1.67,2.15-3.32,2.73c-1.65,0.59-3.07,0.57-4.25-0.05c-1.55-0.72-2.69-2.15-3.4-4.29
		c-0.73-2.18-0.69-4.03,0.11-5.54c0.56-1.24,1.67-2.15,3.32-2.74c1.65-0.59,3.07-0.57,4.26,0.05c1.53,0.68,2.66,2.11,3.39,4.29
		C153.82,217.09,153.78,218.94,153,220.49L153,220.49z M131.21,214.79l2.33,12.37l8.45-1.69l-0.42-2.22l-5.94,1.19l-1.91-10.14
		L131.21,214.79L131.21,214.79z M127.34,224.84c0.53-0.82,0.74-1.94,0.61-3.35c-0.12-1.4-0.51-2.47-1.17-3.18
		c-0.65-0.72-1.49-1.03-2.49-0.94c-1.01,0.09-1.78,0.55-2.32,1.37c-0.53,0.82-0.74,1.94-0.62,3.35c0.12,1.41,0.51,2.48,1.18,3.19
		c0.67,0.71,1.5,1.02,2.51,0.93C126.05,226.11,126.81,225.66,127.34,224.84L127.34,224.84z M129.1,226.6
		c-0.84,1.06-2.13,1.66-3.87,1.82c-1.74,0.16-3.11-0.21-4.12-1.1c-1.33-1.09-2.1-2.76-2.29-5.01c-0.19-2.3,0.27-4.08,1.41-5.34
		c0.84-1.06,2.13-1.67,3.87-1.82c1.74-0.16,3.11,0.21,4.12,1.1c1.32,1.04,2.08,2.71,2.28,5.01
		C130.69,223.51,130.22,225.29,129.1,226.6L129.1,226.6z M107.62,215.22l2.67,0.19l4.26,9.12l0.6-8.77l2.38,0.17l-0.85,12.57
		l-2.55-0.18l-4.38-9.28l-0.61,8.93l-2.38-0.17L107.62,215.22L107.62,215.22z M96.46,213.11l-2.33,12.37l2.47,0.49l0.78-4.14
		l1.44-1.03l2.69,6.15l3.22,0.65l-3.8-8.31l5.88-4.11l-3.24-0.65l-5.59,4.16l0.96-5.09L96.46,213.11L96.46,213.11z M94.35,214.88
		l-6.15-2.06l-0.8,2.54l5.65,1.89l-0.66,2.08l-5.65-1.89l-0.97,3.08l6.44,2.15l-0.68,2.15l-8.81-2.95l3.78-11.98l8.53,2.85
		L94.35,214.88L94.35,214.88z M85.73,209.7l-8.98-4.31l-0.92,2.02l3.33,1.6l-4.25,9.4l2.33,1.12l4.25-9.4l3.32,1.59L85.73,209.7
		L85.73,209.7z M65.8,213.49l-2.18-1.35l6.3-10.8l2.18,1.35L65.8,213.49L65.8,213.49z M69.14,201.01l-8.11-5.85l-1.24,1.83
		l3.01,2.17l-5.77,8.49l2.11,1.52l5.77-8.49l3,2.16L69.14,201.01L69.14,201.01z M52.63,204.34l-1.95-1.68l7.86-9.65l1.95,1.68
		L52.63,204.34L52.63,204.34z M46.14,193.03l-1.78-1.71c-0.87,0.96-1.21,2.03-1.05,3.22c0.17,1.19,0.84,2.34,2.01,3.46
		c1.14,1.1,2.27,1.67,3.4,1.71c1.13,0.04,2.08-0.36,2.84-1.2c0.74-0.82,1.04-1.71,0.9-2.65c-0.09-0.61-0.4-1.32-0.92-2.14l-1.2-1.86
		c-0.47-0.72-0.74-1.22-0.82-1.5c-0.14-0.44-0.06-0.82,0.24-1.15c0.33-0.36,0.72-0.5,1.19-0.42c0.47,0.08,0.94,0.35,1.43,0.81
		c0.43,0.42,0.72,0.84,0.88,1.27c0.23,0.65,0.1,1.27-0.37,1.86l1.8,1.72c0.85-1.01,1.18-2.09,0.97-3.25
		c-0.19-1.15-0.76-2.18-1.71-3.09c-1.13-1.08-2.23-1.63-3.31-1.65c-1.08-0.02-1.99,0.39-2.73,1.22c-0.82,0.9-1.12,1.86-0.9,2.86
		c0.12,0.6,0.56,1.45,1.29,2.56l0.75,1.13c0.44,0.66,0.72,1.19,0.83,1.6c0.11,0.41,0.03,0.77-0.25,1.08
		c-0.47,0.52-1.06,0.63-1.75,0.31c-0.37-0.16-0.77-0.46-1.21-0.88c-0.74-0.71-1.08-1.4-1.05-2.07
		C45.64,193.93,45.82,193.5,46.14,193.03L46.14,193.03z M43.1,179.83l-2.52,2.18l1.86,2.28c0.37,0.45,0.7,0.75,0.99,0.89
		c0.5,0.25,1.02,0.15,1.55-0.31c0.57-0.49,0.79-1.01,0.67-1.57c-0.07-0.32-0.28-0.69-0.63-1.13L43.1,179.83L43.1,179.83z M48,182.96
		c0.15,0.5,0.18,0.99,0.1,1.5c-0.07,0.42-0.19,0.81-0.38,1.18c-0.19,0.37-0.47,0.71-0.84,1.03c-0.45,0.38-0.98,0.65-1.6,0.79
		c-0.62,0.14-1.23,0.02-1.84-0.36c0.19,0.6,0.2,1.13,0.03,1.59c-0.17,0.46-0.58,0.98-1.23,1.55l-0.63,0.54
		c-0.43,0.37-0.7,0.64-0.83,0.81c-0.2,0.26-0.28,0.54-0.24,0.83l-0.24,0.2l-1.81-2.22c0.15-0.24,0.29-0.43,0.4-0.56
		c0.22-0.28,0.46-0.54,0.74-0.78l0.86-0.77c0.59-0.53,0.9-0.98,0.92-1.37c0.02-0.39-0.21-0.87-0.69-1.47l-1.7-2.08l-3.67,3.17
		l-1.61-1.97l9.37-8.1l3.86,4.73C47.52,181.88,47.86,182.47,48,182.96L48,182.96z M40.41,176.28l-3.62-5.53l-2.15,1.5l3.32,5.07
		l-1.76,1.22l-3.32-5.07l-2.61,1.81l3.78,5.78l-1.82,1.27l-5.18-7.91l10.14-7.05l5.01,7.66L40.41,176.28L40.41,176.28z
		 M35.67,164.39l-9.49,1.88l7.06-6.78l-1.24-2.51l-9.02,9.52l1.1,2.21l12.79-1.89L35.67,164.39L35.67,164.39z M20.46,160.85
		l-0.95-2.43l11.34-4.72l0.95,2.43L20.46,160.85L20.46,160.85z M27.27,142.55l-11.76,3.47l0.66,2.36l8.35-2.47l-6.97,7.41l0.71,2.53
		l11.75-3.47l-0.65-2.36l-8.21,2.42l6.86-7.25L27.27,142.55L27.27,142.55z M25.35,130.95l0.4,2.64l-7.42,1.21
		c-0.83,0.13-1.42,0.34-1.77,0.6c-0.63,0.42-0.86,1.17-0.7,2.23c0.16,1.05,0.6,1.68,1.33,1.89c0.41,0.14,1.04,0.14,1.87,0.01
		l7.43-1.21l0.4,2.64l-7.42,1.21c-1.29,0.21-2.31,0.17-3.1-0.13c-1.43-0.55-2.31-1.9-2.64-4.06c-0.33-2.15,0.1-3.73,1.3-4.71
		c0.65-0.53,1.62-0.9,2.9-1.1L25.35,130.95L25.35,130.95z M163.82,49.13c0,0-36.4,0-38.85,0c-3.28,0-5.74,2.44-5.74,5.69
		c0,3.25,0,28.11,0,28.11s0.82-2.44,4.51-2.44c3.68,0,32.85,0,34.28,0c1.43,0,5.8-2.44,5.8-4.88
		C163.82,73.18,163.82,49.13,163.82,49.13L163.82,49.13z M62,140.08c0-30.8,23.5-55.95,53.05-57.53l0,15.52h0l0,13.37
		c-9.44,1.48-16.65,9.58-16.65,19.36c0,10.83,8.85,19.6,19.77,19.6c10.92,0,19.76-8.78,19.76-19.6c0-9.65-7.03-17.68-16.3-19.3V98.1
		v-2.03V82.6c29.23,1.93,52.36,26.93,52.36,57.49c0,31.81-25.07,57.61-56,57.61C87.07,197.69,62,171.9,62,140.08L62,140.08z
		 M94.17,105.85c-10.45,7.67-17.26,20.23-17.26,34.41c0,23.36,18.47,42.3,41.27,42.3c22.79,0,41.26-18.94,41.26-42.3
		c0-14.19-6.81-26.74-17.27-34.42c6.37,6.34,10.33,15.18,10.33,24.96c0,19.28-15.37,34.91-34.33,34.91
		c-18.96,0-34.33-15.63-34.33-34.91C83.84,121.02,87.8,112.19,94.17,105.85L94.17,105.85z M73.34,49.13c0,0,0,24.04,0,26.48
		c0,2.44,4.37,4.88,5.8,4.88c1.44,0,30.6,0,34.28,0c3.69,0,4.5,2.44,4.5,2.44s0-24.86,0-28.11c0-3.25-2.46-5.69-5.74-5.69
		C109.74,49.13,73.34,49.13,73.34,49.13L73.34,49.13z M212.18,119.63c0-3.16,2.58-5.72,5.77-5.72c3.19,0,5.77,2.56,5.77,5.72
		c0,3.16-2.58,5.72-5.77,5.72C214.76,125.35,212.18,122.79,212.18,119.63z"/>
	<path class="st0" d="M252.33,192.45h3.48v14.03c0,1.57,0.13,2.71,0.4,3.44c0.42,1.28,1.32,1.92,2.72,1.92
		c1.38,0,2.28-0.64,2.7-1.92c0.27-0.72,0.4-1.87,0.4-3.44l0-14.03h3.48v14.03c0,2.43-0.27,4.32-0.81,5.67
		c-1.01,2.48-2.93,3.72-5.77,3.72c-2.84,0-4.77-1.24-5.78-3.72c-0.54-1.35-0.81-3.24-0.81-5.67V192.45L252.33,192.45z M665.1,206.65
		h4.16l-2.05-8.98L665.1,206.65L665.1,206.65z M665.31,192.45h3.87l5.8,22.82h-3.71l-1.06-4.69h-6.03l-1.13,4.69h-3.58
		L665.31,192.45L665.31,192.45z M656.86,215.28h-3.4v-22.82h3.4V215.28L656.86,215.28z M640.44,208.23c0.1,1.04,0.31,1.82,0.61,2.34
		c0.56,0.94,1.51,1.41,2.86,1.41c0.81,0,1.46-0.12,1.96-0.37c0.96-0.48,1.44-1.36,1.44-2.65c0-0.76-0.24-1.34-0.71-1.75
		c-0.47-0.4-1.22-0.76-2.24-1.07l-1.73-0.54c-1.7-0.54-2.88-1.12-3.54-1.75c-1.1-1.05-1.65-2.7-1.65-4.94c0-2.04,0.53-3.74,1.6-5.09
		c1.07-1.35,2.63-2.03,4.7-2.03c1.73,0,3.2,0.64,4.41,1.92c1.22,1.27,1.86,3.12,1.92,5.54h-3.29c-0.06-1.37-0.49-2.35-1.29-2.92
		c-0.53-0.38-1.2-0.57-1.99-0.57c-0.88,0-1.58,0.25-2.11,0.74c-0.52,0.49-0.79,1.19-0.79,2.08c0,0.82,0.26,1.43,0.78,1.83
		c0.33,0.27,1.04,0.58,2.13,0.94l2.82,0.94c1.24,0.41,2.17,0.96,2.8,1.66c0.98,1.07,1.47,2.63,1.47,4.66c0,2.08-0.58,3.82-1.72,5.2
		c-1.14,1.37-2.76,2.06-4.85,2.06c-2.13,0-3.81-0.68-5.04-2.03c-1.22-1.36-1.83-3.23-1.83-5.6H640.44L640.44,208.23z M631.55,192.45
		h3.88l-5.48,14.25v8.58h-3.42v-8.58l-5.67-14.25h4.03l3.4,9.94L631.55,192.45L631.55,192.45z M609.67,206.65h4.16l-2.05-8.98
		L609.67,206.65L609.67,206.65z M609.88,192.45h3.87l5.8,22.82h-3.71l-1.06-4.69h-6.04l-1.13,4.69h-3.58L609.88,192.45
		L609.88,192.45z M590.71,192.45h3.43v18.72h8.12v4.1h-11.54V192.45L590.71,192.45z M578.17,206.65h4.16l-2.05-8.98L578.17,206.65
		L578.17,206.65z M578.38,192.45h3.87l5.8,22.82h-3.71l-1.06-4.69h-6.03l-1.13,4.69h-3.58L578.38,192.45L578.38,192.45z
		 M565.01,192.45h4.92v22.82h-3.19v-15.44c0-0.44,0.01-1.06,0.01-1.86c0.01-0.81,0.01-1.42,0.01-1.86l-3.1,19.15h-3.32l-3.08-19.15
		c0,0.44,0,1.05,0.01,1.86c0.01,0.79,0.01,1.41,0.01,1.86v15.44h-3.19v-22.82h4.98l2.98,17.94L565.01,192.45L565.01,192.45z
		 M536.48,215.28h-3.4v-22.82h3.4V215.28L536.48,215.28z M526.08,199.58c-0.26-1.56-0.89-2.65-1.9-3.27
		c-0.56-0.34-1.19-0.51-1.88-0.51c-1.32,0-2.4,0.7-3.26,2.09c-0.84,1.39-1.27,3.47-1.27,6.26c0,2.81,0.46,4.8,1.38,5.96
		c0.92,1.16,1.96,1.75,3.13,1.75c1.15,0,2.09-0.46,2.82-1.38c0.74-0.93,1.19-2.14,1.36-3.64l-3.79,0v-3.81h6.83v12.25h-2.27
		l-0.35-2.85c-0.66,1.08-1.25,1.85-1.78,2.29c-0.9,0.77-2.02,1.16-3.33,1.16c-2.17,0-3.95-1.05-5.33-3.14
		c-1.45-2.1-2.17-4.98-2.17-8.64c0-3.7,0.73-6.66,2.19-8.89c1.46-2.23,3.39-3.34,5.79-3.34c2.08,0,3.75,0.74,5.02,2.21
		c1.27,1.46,1.99,3.3,2.18,5.5H526.08L526.08,199.58z M507.25,209.78c0.8-1.39,1.2-3.38,1.2-5.95c0-2.56-0.4-4.53-1.2-5.93
		c-0.79-1.4-1.87-2.1-3.22-2.1c-1.36,0-2.44,0.7-3.25,2.09c-0.81,1.39-1.21,3.38-1.21,5.95c0,2.57,0.4,4.55,1.21,5.95
		c0.81,1.39,1.89,2.09,3.25,2.09C505.38,211.87,506.46,211.17,507.25,209.78L507.25,209.78z M509.4,213.24
		c-1.24,1.78-3.03,2.66-5.37,2.67c-2.34,0-4.13-0.89-5.37-2.66c-1.66-2.18-2.49-5.31-2.49-9.41c0-4.18,0.83-7.32,2.49-9.41
		c1.24-1.77,3.03-2.66,5.37-2.66c2.34,0,4.13,0.89,5.37,2.66c1.65,2.1,2.48,5.23,2.48,9.41
		C511.88,207.93,511.05,211.07,509.4,213.24L509.4,213.24z M482.3,192.45h3.42v18.72h8.12v4.1H482.3V192.45L482.3,192.45z
		 M474.49,209.78c0.8-1.39,1.2-3.38,1.2-5.95c0-2.56-0.4-4.53-1.2-5.93c-0.79-1.4-1.87-2.1-3.22-2.1c-1.36,0-2.44,0.7-3.25,2.09
		c-0.81,1.39-1.21,3.38-1.21,5.95c0,2.57,0.4,4.55,1.21,5.95c0.81,1.39,1.89,2.09,3.25,2.09
		C472.62,211.87,473.69,211.17,474.49,209.78L474.49,209.78z M476.63,213.24c-1.24,1.78-3.03,2.66-5.37,2.67
		c-2.34,0-4.13-0.89-5.37-2.66c-1.66-2.18-2.49-5.31-2.49-9.41c0-4.18,0.83-7.32,2.49-9.41c1.24-1.77,3.03-2.66,5.37-2.66
		c2.34,0,4.13,0.89,5.37,2.66c1.65,2.1,2.48,5.23,2.48,9.41C479.11,207.93,478.28,211.07,476.63,213.24L476.63,213.24z
		 M446.94,192.45h3.59l6.53,15.93v-15.93h3.19v22.82h-3.43l-6.69-16.21v16.21h-3.19V192.45L446.94,192.45z M430.04,192.45h3.37v9.4
		l6.32-9.4h4.42l-6.71,9.4l7.06,13.42h-4.4l-5.06-9.97l-1.63,2.34v7.63h-3.37V192.45L430.04,192.45z M426.34,196.49h-8.67v4.85h7.96
		v3.96h-7.96v5.87h9.07v4.1h-12.42v-22.82h12.02V196.49L426.34,196.49z M411.65,192.45v4.04h-4.91v18.78h-3.44v-18.78h-4.92v-4.04
		H411.65L411.65,192.45z M382.07,215.28h-3.4v-22.82h3.4V215.28L382.07,215.28z M376.36,192.45v4.04h-4.9v18.78h-3.45v-18.78h-4.92
		v-4.04H376.36L376.36,192.45z M360.69,215.28h-3.4v-22.82h3.4V215.28L360.69,215.28z M344.27,208.23c0.11,1.04,0.31,1.82,0.61,2.34
		c0.55,0.94,1.51,1.41,2.86,1.41c0.81,0,1.46-0.12,1.97-0.37c0.96-0.48,1.44-1.36,1.44-2.65c0-0.76-0.24-1.34-0.71-1.75
		c-0.47-0.4-1.22-0.76-2.24-1.07l-1.73-0.54c-1.71-0.54-2.88-1.12-3.54-1.75c-1.1-1.05-1.66-2.7-1.66-4.94
		c0-2.04,0.54-3.74,1.6-5.09c1.07-1.35,2.64-2.03,4.7-2.03c1.73,0,3.2,0.64,4.41,1.92c1.22,1.27,1.86,3.12,1.92,5.54h-3.29
		c-0.06-1.37-0.49-2.35-1.29-2.92c-0.53-0.38-1.2-0.57-1.99-0.57c-0.88,0-1.58,0.25-2.11,0.74c-0.53,0.49-0.79,1.19-0.79,2.08
		c0,0.82,0.26,1.43,0.78,1.83c0.33,0.27,1.04,0.58,2.14,0.94l2.82,0.94c1.24,0.41,2.17,0.96,2.8,1.66c0.98,1.07,1.47,2.63,1.47,4.66
		c0,2.08-0.57,3.82-1.72,5.2c-1.14,1.37-2.76,2.06-4.85,2.06c-2.13,0-3.81-0.68-5.04-2.03c-1.22-1.36-1.83-3.23-1.83-5.6H344.27
		L344.27,208.23z M328.2,196.42v6.13h3.88c0.77,0,1.35-0.12,1.74-0.37c0.68-0.43,1.02-1.29,1.02-2.57c0-1.38-0.33-2.31-0.99-2.79
		c-0.37-0.27-0.93-0.4-1.67-0.4H328.2L328.2,196.42z M335.54,193.04c0.62,0.36,1.15,0.89,1.58,1.59c0.36,0.58,0.64,1.22,0.85,1.92
		c0.21,0.7,0.31,1.5,0.31,2.4c0,1.08-0.2,2.15-0.59,3.21c-0.39,1.04-1.04,1.78-1.95,2.21c0.75,0.42,1.29,1.03,1.6,1.81
		c0.32,0.77,0.48,1.96,0.48,3.56v1.53c0,1.04,0.03,1.75,0.09,2.12c0.09,0.59,0.3,1.02,0.62,1.3v0.57h-3.77
		c-0.1-0.51-0.18-0.91-0.23-1.22c-0.09-0.64-0.14-1.29-0.14-1.97l-0.02-2.12c-0.01-1.46-0.21-2.43-0.58-2.91
		c-0.36-0.49-1.05-0.73-2.06-0.73h-3.54v8.95h-3.35v-22.82h8.04C334.05,192.48,334.93,192.68,335.54,193.04L335.54,193.04z
		 M321.14,196.49h-8.67v4.85h7.96v3.96h-7.96v5.87h9.07v4.1h-12.42v-22.82h12.02V196.49L321.14,196.49z M302.86,192.45h3.56
		l-5.59,22.82h-3.24l-5.54-22.82h3.66l3.55,17.33L302.86,192.45L302.86,192.45z M289.5,215.28h-3.4v-22.82h3.4V215.28L289.5,215.28z
		 M269.29,192.45h3.59l6.53,15.93v-15.93h3.19v22.82h-3.42l-6.69-16.21v16.21h-3.19V192.45z"/>
	<path class="st0" d="M382.4,41.21c-0.61,0.03-1.45,0.13-2.5,0.31c-1.21,0.21-2.5,0.48-3.87,0.81c-1.29,0.31-2.48,0.71-3.58,1.19
		c-0.97,0.43-1.81,0.91-2.52,1.44l0,0c-0.45,0.36-0.89,1.05-1.32,2.05c-0.56,1.32-1,3.05-1.32,5.17c-0.37,2.39-0.64,5-0.82,7.82
		c-0.18,2.83-0.26,6.03-0.26,9.58v63.03c0,4.23-0.39,8.24-1.16,12.03c-0.78,3.81-1.94,7.35-3.49,10.6
		c-1.54,3.23-3.33,6.16-5.34,8.79c-2.04,2.66-4.34,5.05-6.89,7.15l-0.03,0.03c-2.46,1.98-5,3.68-7.63,5.11
		c-2.63,1.43-5.33,2.57-8.09,3.43l0,0c-2.7,0.87-5.35,1.54-7.96,1.98c-2.66,0.45-5.24,0.67-7.73,0.67c-3.91,0-7.64-0.31-11.17-0.93
		c-3.54-0.62-6.9-1.57-10.06-2.84v0c-3.12-1.21-5.99-2.65-8.61-4.3c-2.67-1.69-5.09-3.6-7.25-5.73l-0.03-0.03
		c-2.11-2.11-3.97-4.39-5.58-6.84c-1.64-2.48-2.98-5.06-4.05-7.75v-0.02c-1.07-2.74-1.87-5.54-2.41-8.42
		c-0.55-2.89-0.81-5.81-0.81-8.74V51.1c0-0.98-0.07-1.84-0.2-2.59c-0.12-0.68-0.29-1.26-0.5-1.75l-0.06-0.17
		c-0.14-0.36-0.39-0.75-0.76-1.15c-0.45-0.5-1.04-1-1.78-1.5l0.01-0.01c-0.47-0.3-1.06-0.6-1.76-0.88c-0.78-0.32-1.62-0.58-2.52-0.8
		l-0.11-0.02c-1.19-0.32-2.13-0.55-2.81-0.69c-0.78-0.16-1.48-0.27-2.08-0.32l-3.55-0.33v-3.56v-7.25v-3.92h3.92h51.26h3.92v3.92
		v7.25v3.74l-3.75,0.16c-0.63,0.03-1.42,0.11-2.36,0.25c-0.92,0.14-1.97,0.33-3.14,0.59l0-0.01c-1.03,0.23-2.01,0.48-2.92,0.74
		c-0.79,0.23-1.39,0.42-1.78,0.58l0,0c-0.5,0.21-0.89,0.45-1.17,0.75c-0.28,0.28-0.49,0.64-0.64,1.06h0
		c-0.22,0.67-0.39,1.42-0.51,2.24c-0.13,0.84-0.19,1.73-0.19,2.66h-0.02l0,80.09h0.01c0,1.84,0.08,3.73,0.25,5.65
		c0.17,2.01,0.41,3.99,0.72,5.93l0.01,0c0.34,1.89,0.82,3.71,1.46,5.46c0.65,1.77,1.45,3.47,2.4,5.11l0,0
		c0.94,1.55,2.06,2.98,3.38,4.3c1.32,1.32,2.81,2.49,4.49,3.52c1.59,0.98,3.48,1.71,5.68,2.21c2.34,0.52,5.09,0.78,8.23,0.78
		c2.94,0,5.58-0.26,7.92-0.79c2.28-0.51,4.33-1.27,6.14-2.28l0.01-0.01c1.9-1.04,3.58-2.24,5.05-3.58c1.46-1.34,2.72-2.84,3.78-4.5
		c1.08-1.68,2-3.38,2.75-5.09c0.75-1.73,1.35-3.48,1.78-5.26c0.44-1.81,0.78-3.68,1.01-5.59c0.24-1.94,0.36-3.83,0.36-5.65h-0.02
		V70.92c0-3.72-0.11-7.05-0.33-9.99c-0.22-2.94-0.55-5.53-0.98-7.76c-0.41-2.14-0.9-3.88-1.47-5.2c-0.43-1-0.86-1.68-1.28-2.03
		v-0.01c-0.75-0.63-1.68-1.21-2.77-1.74c-1.14-0.54-2.49-1.03-4.05-1.45l-0.02-0.02c-1.63-0.45-3.08-0.8-4.35-1.06
		c-1.13-0.23-2.09-0.38-2.88-0.43L328,40.94v-3.64v-7.25v-3.92h3.92h50.31h3.92v3.92v7.25v3.74L382.4,41.21L382.4,41.21z
		 M671.65,178.94h-54.38h-3.92v-3.92v-7.25v-3.77l3.8-0.13c0.9-0.03,1.95-0.1,3.14-0.21c1.16-0.11,2.5-0.27,4.01-0.47h0.02
		c1.35-0.18,2.49-0.39,3.44-0.65c0.64-0.17,1.08-0.33,1.31-0.46c0.59-0.44,1.11-0.91,1.56-1.42c0.42-0.48,0.76-0.96,1-1.45
		l0.02-0.05c0.28-0.56,0.5-1.18,0.64-1.86c0.16-0.76,0.24-1.65,0.24-2.69V69.02l-35.66,104.91l-0.91,2.66h-2.8h-4.34h-2.87
		l-0.87-2.74L551.62,68.36v64.77c0,4.17,0.1,7.76,0.31,10.8c0.2,3,0.51,5.52,0.92,7.56h0c0.4,1.88,0.89,3.48,1.47,4.79
		c0.51,1.14,1.06,2.02,1.65,2.63l0.12,0.12c0.32,0.36,0.92,0.77,1.8,1.22c1.14,0.59,2.59,1.17,4.37,1.75h0.02
		c1.98,0.64,3.55,1.12,4.71,1.42c1.04,0.27,1.74,0.42,2.1,0.44l3.7,0.2v3.7v7.25v3.92h-3.92h-49.7h-3.92v-3.92v-7.25v-3.52
		l3.52-0.37c1.18-0.12,2.41-0.3,3.67-0.54c1.26-0.24,2.55-0.53,3.89-0.89h0.01c1.17-0.3,2.19-0.67,3.06-1.11
		c0.76-0.38,1.4-0.82,1.89-1.29l0.03-0.03c0.65-0.61,1.22-1.43,1.7-2.45c0.56-1.17,0.99-2.57,1.3-4.21
		c0.34-1.81,0.61-4.28,0.78-7.41c0.19-3.3,0.28-7.2,0.28-11.69l0-74.17h-0.02c0-1.99-0.1-3.78-0.3-5.37
		c-0.19-1.56-0.46-2.89-0.81-3.97c-0.34-1.07-0.77-2.06-1.28-2.96c-0.47-0.83-0.99-1.55-1.57-2.16l0,0
		c-0.67-0.68-1.41-1.27-2.21-1.77c-0.83-0.51-1.77-0.95-2.8-1.3c-1.12-0.38-2.25-0.69-3.38-0.91c-1.14-0.23-2.24-0.37-3.29-0.42
		l-3.71-0.2v-3.71l0-7.25v-3.92h3.9h41.98h2.84l0.88,2.73l31.53,97.32l26.34-79.58c0.55-1.67,1.04-3.29,1.46-4.88
		c0.45-1.68,0.85-3.39,1.21-5.11v-0.03c0.39-1.78,0.69-3.26,0.9-4.44c0.19-1.11,0.3-1.87,0.32-2.27l0.18-3.72h3.72l40.16,0h3.92v3.9
		v7.25v3.74l-3.75,0.16c-0.63,0.03-1.43,0.11-2.38,0.25c-0.97,0.14-2.04,0.34-3.21,0.59l0,0c-1.21,0.26-2.21,0.51-3,0.73
		c-0.79,0.22-1.38,0.41-1.8,0.58l0.01,0c-0.5,0.21-0.89,0.45-1.17,0.75c-0.28,0.28-0.49,0.63-0.64,1.06
		c-0.26,0.72-0.46,1.49-0.6,2.3c-0.13,0.79-0.2,1.66-0.2,2.6h-0.01v104.51h0.02c0,0.99,0.07,1.87,0.2,2.64
		c0.12,0.71,0.3,1.33,0.52,1.86v0.02c0.16,0.38,0.42,0.76,0.78,1.15c0.43,0.46,0.98,0.9,1.67,1.33l0.08,0.05
		c0.27,0.18,0.71,0.37,1.31,0.58c0.77,0.27,1.76,0.55,2.97,0.82l0,0c1.15,0.23,2.24,0.43,3.26,0.57c0.97,0.14,1.75,0.23,2.36,0.25
		l3.75,0.16v3.74l0,7.25v3.92H671.65L671.65,178.94z M504.23,73.3h-5.98h-3.17l-0.66-3.11c-0.22-1.06-0.56-2.26-1-3.6
		c-0.46-1.39-1.01-2.86-1.65-4.4l-0.03-0.08c-0.66-1.69-1.34-3.27-2.02-4.72c-0.7-1.49-1.46-2.96-2.26-4.41v-0.01
		c-0.78-1.42-1.63-2.77-2.52-4.04c-0.83-1.18-1.73-2.32-2.7-3.4l-0.07-0.09c-0.79-0.93-1.54-1.64-2.23-2.12
		c-0.5-0.35-0.96-0.56-1.38-0.64l0,0c-0.92-0.14-1.82-0.25-2.7-0.33c-1.02-0.09-2.2-0.17-3.56-0.24c-1.43-0.07-2.7-0.12-3.81-0.15
		c-1.27-0.04-2.45-0.05-3.55-0.06v0.01h-1.11v112.03c0,0.9,0.07,1.73,0.23,2.51c0.15,0.77,0.37,1.5,0.67,2.19v0
		c0.2,0.46,0.49,0.87,0.84,1.22c0.39,0.39,0.88,0.75,1.48,1.06c0.34,0.16,0.97,0.37,1.86,0.63c1.08,0.32,2.38,0.67,3.92,1.05v0
		c1.54,0.38,2.93,0.67,4.17,0.88c1.16,0.2,2.11,0.31,2.84,0.33l3.78,0.14v3.77v7.25v3.92h-3.92h-58.11h-3.92v-3.92v-7.25v-3.6
		l3.6-0.3c0.9-0.07,1.89-0.17,2.97-0.29c0.95-0.11,2.37-0.27,4.25-0.51c1.64-0.2,2.94-0.4,3.88-0.61c0.86-0.19,1.48-0.37,1.85-0.55
		l0.05-0.03c0.59-0.27,1.08-0.59,1.48-0.95c0.36-0.33,0.65-0.69,0.87-1.1l0.02-0.05c0.29-0.54,0.51-1.16,0.66-1.87
		c0.18-0.88,0.27-1.88,0.27-3V41.94h-1.13c-1.16,0-2.12,0.01-2.91,0.04c-0.98,0.03-2.18,0.08-3.59,0.15h-0.09
		c-1.12,0.03-2.35,0.1-3.69,0.2c-1.25,0.1-2.41,0.23-3.49,0.38v0c-0.35,0.05-0.78,0.25-1.27,0.58c-0.71,0.48-1.46,1.2-2.27,2.15
		c-0.95,1.12-1.85,2.29-2.7,3.53c-0.87,1.26-1.71,2.61-2.53,4.05c-0.84,1.48-1.61,2.97-2.32,4.48c-0.68,1.45-1.36,3.05-2.02,4.79
		l-0.02,0.03c-0.64,1.63-1.18,3.12-1.61,4.46c-0.43,1.32-0.76,2.48-0.99,3.47l-0.7,3.03l-3.11,0l-6.07,0h-3.92v-3.9V30.05v-3.92
		h3.92h107.21h3.92v3.92v39.33v3.92H504.23z"/>
</g>
</svg>
